<?xml version="1.0" encoding="utf-8"?>
<!-- Generator: Adobe Illustrator 24.2.3, SVG Export Plug-In . SVG Version: 6.00 Build 0)  -->
<svg version="1.1" id="Layer_1" xmlns="http://www.w3.org/2000/svg" xmlns:xlink="http://www.w3.org/1999/xlink" x="0px" y="0px"
	 viewBox="0 0 1897.36 946.17" style="enable-background:new 0 0 1897.36 946.17;" xml:space="preserve">
<style type="text/css">
	.st0{fill:#7CCEF4;}
	.st1{fill:#55ADE2;}
	.st2{fill:#3F92D0;}
	.st3{fill:#FFFFFF;stroke:#000000;stroke-miterlimit:10;}
	.st4{fill:none;stroke:#000000;stroke-miterlimit:10;}
	.st5{fill:#FFFFFF;}
	.st6{fill:none;stroke:#3F92D0;stroke-miterlimit:10;}
	.st7{fill:none;stroke:#3F92D0;stroke-width:6;stroke-miterlimit:10;}
	.st8{fill:#E62B28;}
	.st9{fill:#A5C841;}
	.st10{fill:#F3944B;}
	.st11{clip-path:url(#SVGID_2_);fill:#FFFFFF;}
	.st12{fill:#020202;}
	.st13{fill:#636363;}
	.st14{stroke:#000000;stroke-width:1.5;stroke-linecap:round;stroke-miterlimit:10;}
	.st15{fill:none;stroke:#000000;stroke-width:3;stroke-miterlimit:10;}
	.st16{stroke:#000000;stroke-width:3;stroke-linecap:round;stroke-miterlimit:10;}
	.st17{fill:none;stroke:#000000;stroke-width:3;stroke-linecap:round;stroke-linejoin:round;stroke-miterlimit:10;}
	.st18{fill:none;stroke:#020202;stroke-width:3;stroke-linecap:round;stroke-linejoin:round;stroke-miterlimit:10;}
	.st19{fill:#3E91CF;}
	.st20{fill:none;stroke:#3F92D0;stroke-width:2;stroke-miterlimit:10;}
	.st21{fill:#FBBD2C;}
	.st22{fill:none;stroke:#7DCEF4;stroke-width:7;stroke-miterlimit:10;}
</style>
<g>
	<path class="st0" d="M-454.61,96.53h2804.59V0.01c-6.99-0.24-11.87,4.31-11.87,4.31s-10.41,9.72-22.62,0
		c-12.21-9.72-22.62,0-22.62,0s-10.41,9.72-22.62,0c-12.21-9.72-22.62,0-22.62,0s-10.41,9.72-22.62,0c-12.21-9.72-22.63,0-22.63,0
		s-10.41,9.72-22.62,0c-12.21-9.72-22.62,0-22.62,0s-10.41,9.72-22.62,0c-12.21-9.72-22.62,0-22.62,0s-10.41,9.72-22.62,0
		c-12.21-9.72-22.62,0-22.62,0s-10.42,9.72-22.63,0c-12.21-9.72-22.62,0-22.62,0s-10.41,9.72-22.62,0c-12.21-9.72-22.62,0-22.62,0
		s-10.41,9.72-22.62,0c-12.21-9.72-22.62,0-22.62,0s-10.42,9.72-22.63,0c-12.21-9.72-22.62,0-22.62,0s-10.41,9.72-22.62,0
		c-12.21-9.72-22.62,0-22.62,0s-10.41,9.72-22.62,0c-12.21-9.72-22.62,0-22.62,0s-10.42,9.72-22.63,0c-12.19-9.72-22.62,0-22.62,0
		s-10.41,9.72-22.62,0c-12.21-9.72-22.62,0-22.62,0s-10.41,9.72-22.62,0c-12.21-9.72-22.62,0-22.62,0s-10.42,9.72-22.63,0
		c-12.19-9.72-22.62,0-22.62,0s-10.41,9.72-22.62,0c-12.21-9.72-22.62,0-22.62,0s-10.41,9.72-22.62,0c-12.21-9.72-22.62,0-22.62,0
		s-10.42,9.72-22.63,0c-12.19-9.72-22.62,0-22.62,0s-10.41,9.72-22.62,0c-12.21-9.72-22.62,0-22.62,0s-10.41,9.72-22.62,0
		c-12.21-9.72-22.62,0-22.62,0s-10.42,9.72-22.63,0c-12.19-9.72-22.62,0-22.62,0s-10.41,9.72-22.62,0c-12.21-9.72-22.62,0-22.62,0
		s-10.41,9.72-22.62,0c-12.21-9.72-22.62,0-22.62,0s-10.42,9.72-22.63,0c-12.19-9.72-22.62,0-22.62,0s-10.41,9.72-22.62,0
		c-12.21-9.72-22.62,0-22.62,0s-10.41,9.72-22.62,0c-12.21-9.72-22.62,0-22.62,0s-10.42,9.72-22.62,0c-12.21-9.72-22.63,0-22.63,0
		s-10.41,9.72-22.62,0c-12.21-9.72-22.62,0-22.62,0s-10.41,9.72-22.62,0c-12.21-9.72-22.62,0-22.62,0s-10.42,9.72-22.62,0
		c-12.21-9.72-22.63,0-22.63,0s-10.41,9.72-22.62,0c-12.21-9.72-22.62,0-22.62,0s-10.41,9.72-22.62,0c-12.21-9.72-22.62,0-22.62,0
		s-10.42,9.72-22.62,0c-12.21-9.72-22.63,0-22.63,0s-10.41,9.72-22.62,0c-12.21-9.72-22.62,0-22.62,0s-10.41,9.72-22.62,0
		c-12.21-9.72-22.62,0-22.62,0s-10.42,9.72-22.62,0c-12.21-9.72-22.63,0-22.63,0s-10.41,9.72-22.62,0c-12.21-9.72-22.62,0-22.62,0
		s-10.41,9.72-22.62,0c-12.21-9.72-22.62,0-22.62,0s-10.42,9.72-22.62,0c-12.21-9.72-22.63,0-22.63,0s-10.41,9.72-22.62,0
		c-12.21-9.72-22.62,0-22.62,0s-10.41,9.72-22.62,0c-12.21-9.72-22.62,0-22.62,0s-10.41,9.72-22.62,0c-12.21-9.72-22.63,0-22.63,0
		s-10.41,9.72-22.62,0c-12.21-9.72-22.62,0-22.62,0s-10.41,9.72-22.62,0c-12.21-9.72-22.62,0-22.62,0s-10.41,9.72-22.62,0
		c-12.21-9.72-22.63,0-22.63,0s-10.41,9.72-22.62,0c-12.21-9.72-22.62,0-22.62,0s-10.41,9.72-22.62,0c-12.21-9.72-22.62,0-22.62,0
		s-10.41,9.72-22.62,0c-12.21-9.72-22.62,0-22.62,0s-10.42,9.72-22.63,0c-12.21-9.72-22.62,0-22.62,0s-10.41,9.72-22.62,0
		c-12.21-9.72-22.62,0-22.62,0s-10.41,9.72-22.62,0c-12.21-9.72-22.62,0-22.62,0s-10.42,9.72-22.63,0c-12.21-9.72-22.62,0-22.62,0
		s-10.41,9.72-22.62,0c-12.21-9.72-22.62,0-22.62,0s-10.41,9.72-22.62,0c-12.21-9.72-22.62,0-22.62,0s-10.42,9.72-22.63,0
		c-12.21-9.72-22.62,0-22.62,0s-10.41,9.72-22.62,0c-12.21-9.72-22.62,0-22.62,0s-10.41,9.72-22.62,0c-12.21-9.72-22.62,0-22.62,0
		s-10.42,9.72-22.63,0c-12.19-9.72-22.62,0-22.62,0s-10.41,9.72-22.62,0c-12.21-9.72-22.62,0-22.62,0s-10.41,9.72-22.62,0
		c-12.21-9.72-22.62,0-22.62,0s-10.42,9.72-22.63,0c-3.83-3.05-7.48-4.18-10.69-4.31V96.53z"/>
	<path class="st1" d="M2349.98,96.53V20.27c-3.34-0.01-7.2-1.09-11.26-4.32c-12.21-9.72-22.62,0-22.62,0s-10.41,9.72-22.62,0
		c-12.21-9.72-22.62,0-22.62,0s-10.41,9.72-22.62,0c-12.21-9.72-22.63,0-22.63,0s-10.41,9.72-22.62,0c-12.21-9.72-22.62,0-22.62,0
		s-10.41,9.72-22.62,0c-12.21-9.72-22.62,0-22.62,0s-10.41,9.72-22.62,0s-22.62,0-22.62,0s-10.42,9.72-22.63,0
		c-12.21-9.72-22.62,0-22.62,0s-10.41,9.72-22.62,0c-12.21-9.72-22.62,0-22.62,0s-10.41,9.72-22.62,0c-12.21-9.72-22.62,0-22.62,0
		s-10.42,9.72-22.63,0c-12.21-9.72-22.62,0-22.62,0s-10.41,9.72-22.62,0c-12.21-9.72-22.62,0-22.62,0s-10.41,9.72-22.62,0
		c-12.21-9.72-22.62,0-22.62,0s-10.42,9.72-22.63,0c-12.19-9.72-22.62,0-22.62,0s-10.41,9.72-22.62,0c-12.21-9.72-22.62,0-22.62,0
		s-10.41,9.72-22.62,0c-12.21-9.72-22.62,0-22.62,0s-10.42,9.72-22.63,0c-12.19-9.72-22.62,0-22.62,0s-10.41,9.72-22.62,0
		c-12.21-9.72-22.62,0-22.62,0s-10.41,9.72-22.62,0c-12.21-9.72-22.62,0-22.62,0s-10.42,9.72-22.63,0c-12.19-9.72-22.62,0-22.62,0
		s-10.41,9.72-22.62,0c-12.21-9.72-22.62,0-22.62,0s-10.41,9.72-22.62,0c-12.21-9.72-22.62,0-22.62,0s-10.42,9.72-22.63,0
		c-12.19-9.72-22.62,0-22.62,0s-10.41,9.72-22.62,0c-12.21-9.72-22.62,0-22.62,0s-10.41,9.72-22.62,0c-12.21-9.72-22.62,0-22.62,0
		s-10.42,9.72-22.63,0c-12.19-9.72-22.62,0-22.62,0s-10.41,9.72-22.62,0c-12.21-9.72-22.62,0-22.62,0s-10.41,9.72-22.62,0
		c-12.21-9.72-22.62,0-22.62,0s-10.42,9.72-22.62,0c-12.21-9.72-22.63,0-22.63,0s-10.41,9.72-22.62,0c-12.21-9.72-22.62,0-22.62,0
		s-10.41,9.72-22.62,0c-12.21-9.72-22.62,0-22.62,0s-10.42,9.72-22.62,0c-12.21-9.72-22.63,0-22.63,0s-10.41,9.72-22.62,0
		c-12.21-9.72-22.62,0-22.62,0s-10.41,9.72-22.62,0c-12.21-9.72-22.62,0-22.62,0s-10.42,9.72-22.62,0c-12.21-9.72-22.63,0-22.63,0
		s-10.41,9.72-22.62,0c-12.21-9.72-22.62,0-22.62,0s-10.41,9.72-22.62,0c-12.21-9.72-22.62,0-22.62,0s-10.42,9.72-22.62,0
		c-12.21-9.72-22.63,0-22.63,0s-10.41,9.72-22.62,0c-12.21-9.72-22.62,0-22.62,0s-10.41,9.72-22.62,0c-12.21-9.72-22.62,0-22.62,0
		s-10.42,9.72-22.62,0c-12.21-9.72-22.63,0-22.63,0s-10.41,9.72-22.62,0c-12.21-9.72-22.62,0-22.62,0s-10.41,9.72-22.62,0
		c-12.21-9.72-22.62,0-22.62,0s-10.41,9.72-22.62,0c-12.21-9.72-22.63,0-22.63,0s-10.41,9.72-22.62,0c-12.21-9.72-22.62,0-22.62,0
		s-10.41,9.72-22.62,0c-12.21-9.72-22.62,0-22.62,0s-10.41,9.72-22.62,0c-12.21-9.72-22.63,0-22.63,0s-10.41,9.72-22.62,0
		c-12.21-9.72-22.62,0-22.62,0s-10.41,9.72-22.62,0c-12.21-9.72-22.62,0-22.62,0s-10.41,9.72-22.62,0c-12.21-9.72-22.62,0-22.62,0
		s-10.42,9.72-22.63,0c-12.21-9.72-22.62,0-22.62,0s-10.41,9.72-22.62,0c-12.21-9.72-22.62,0-22.62,0s-10.41,9.72-22.62,0
		s-22.62,0-22.62,0s-10.42,9.72-22.63,0c-12.21-9.72-22.62,0-22.62,0s-10.41,9.72-22.62,0s-22.62,0-22.62,0s-10.41,9.72-22.62,0
		c-12.21-9.72-22.62,0-22.62,0s-10.42,9.72-22.63,0c-12.21-9.72-22.62,0-22.62,0s-10.41,9.72-22.62,0c-12.21-9.72-22.62,0-22.62,0
		s-10.41,9.72-22.62,0c-12.21-9.72-22.62,0-22.62,0s-10.42,9.72-22.63,0c-12.19-9.72-22.62,0-22.62,0s-10.41,9.72-22.62,0
		c-12.21-9.72-22.62,0-22.62,0s-10.41,9.72-22.62,0c-12.21-9.72-22.62,0-22.62,0s-10.42,9.72-22.63,0c-12.19-9.72-22.62,0-22.62,0
		s-4.62,4.3-11.31,4.31v76.26H2349.98z"/>
	<path class="st2" d="M-454.61,96.53h2804.59v-73.4c-6.99-0.24-11.87,4.31-11.87,4.31s-10.41,9.72-22.62,0
		c-12.21-9.72-22.62,0-22.62,0s-10.41,9.72-22.62,0c-12.21-9.72-22.62,0-22.62,0s-10.41,9.72-22.62,0c-12.21-9.72-22.63,0-22.63,0
		s-10.41,9.72-22.62,0c-12.21-9.72-22.62,0-22.62,0s-10.41,9.72-22.62,0c-12.21-9.72-22.62,0-22.62,0s-10.41,9.72-22.62,0
		c-12.21-9.72-22.62,0-22.62,0s-10.42,9.72-22.63,0c-12.21-9.72-22.62,0-22.62,0s-10.41,9.72-22.62,0c-12.21-9.72-22.62,0-22.62,0
		s-10.41,9.72-22.62,0c-12.21-9.72-22.62,0-22.62,0s-10.42,9.72-22.63,0c-12.21-9.72-22.62,0-22.62,0s-10.41,9.72-22.62,0
		c-12.21-9.72-22.62,0-22.62,0s-10.41,9.72-22.62,0c-12.21-9.72-22.62,0-22.62,0s-10.42,9.72-22.63,0c-12.19-9.72-22.62,0-22.62,0
		s-10.41,9.72-22.62,0c-12.21-9.72-22.62,0-22.62,0s-10.41,9.72-22.62,0c-12.21-9.72-22.62,0-22.62,0s-10.42,9.72-22.63,0
		c-12.19-9.72-22.62,0-22.62,0s-10.41,9.72-22.62,0c-12.21-9.72-22.62,0-22.62,0s-10.41,9.72-22.62,0c-12.21-9.72-22.62,0-22.62,0
		s-10.42,9.72-22.63,0c-12.19-9.72-22.62,0-22.62,0s-10.41,9.72-22.62,0c-12.21-9.72-22.62,0-22.62,0s-10.41,9.72-22.62,0
		c-12.21-9.72-22.62,0-22.62,0s-10.42,9.72-22.63,0c-12.19-9.72-22.62,0-22.62,0s-10.41,9.72-22.62,0c-12.21-9.72-22.62,0-22.62,0
		s-10.41,9.72-22.62,0c-12.21-9.72-22.62,0-22.62,0s-10.42,9.72-22.63,0c-12.19-9.72-22.62,0-22.62,0s-10.41,9.72-22.62,0
		c-12.21-9.72-22.62,0-22.62,0s-10.41,9.72-22.62,0c-12.21-9.72-22.62,0-22.62,0s-10.42,9.72-22.62,0c-12.21-9.72-22.63,0-22.63,0
		s-10.41,9.72-22.62,0c-12.21-9.72-22.62,0-22.62,0s-10.41,9.72-22.62,0c-12.21-9.72-22.62,0-22.62,0s-10.42,9.72-22.62,0
		c-12.21-9.72-22.63,0-22.63,0s-10.41,9.72-22.62,0c-12.21-9.72-22.62,0-22.62,0s-10.41,9.72-22.62,0c-12.21-9.72-22.62,0-22.62,0
		s-10.42,9.72-22.62,0c-12.21-9.72-22.63,0-22.63,0s-10.41,9.72-22.62,0c-12.21-9.72-22.62,0-22.62,0s-10.41,9.72-22.62,0
		c-12.21-9.72-22.62,0-22.62,0s-10.42,9.72-22.62,0c-12.21-9.72-22.63,0-22.63,0s-10.41,9.72-22.62,0c-12.21-9.72-22.62,0-22.62,0
		s-10.41,9.72-22.62,0c-12.21-9.72-22.62,0-22.62,0s-10.42,9.72-22.62,0c-12.21-9.72-22.63,0-22.63,0s-10.41,9.72-22.62,0
		c-12.21-9.72-22.62,0-22.62,0s-10.41,9.72-22.62,0c-12.21-9.72-22.62,0-22.62,0s-10.41,9.72-22.62,0c-12.21-9.72-22.63,0-22.63,0
		s-10.41,9.72-22.62,0c-12.21-9.72-22.62,0-22.62,0s-10.41,9.72-22.62,0c-12.21-9.72-22.62,0-22.62,0s-10.41,9.72-22.62,0
		c-12.21-9.72-22.63,0-22.63,0s-10.41,9.72-22.62,0c-12.21-9.72-22.62,0-22.62,0s-10.41,9.72-22.62,0c-12.21-9.72-22.62,0-22.62,0
		s-10.41,9.72-22.62,0c-12.21-9.72-22.62,0-22.62,0s-10.42,9.72-22.63,0c-12.21-9.72-22.62,0-22.62,0s-10.41,9.72-22.62,0
		c-12.21-9.72-22.62,0-22.62,0s-10.41,9.72-22.62,0c-12.21-9.72-22.62,0-22.62,0s-10.42,9.72-22.63,0c-12.21-9.72-22.62,0-22.62,0
		s-10.41,9.72-22.62,0c-12.21-9.72-22.62,0-22.62,0s-10.41,9.72-22.62,0c-12.21-9.72-22.62,0-22.62,0s-10.42,9.72-22.63,0
		c-12.21-9.72-22.62,0-22.62,0s-10.41,9.72-22.62,0c-12.21-9.72-22.62,0-22.62,0s-10.41,9.72-22.62,0c-12.21-9.72-22.62,0-22.62,0
		s-10.42,9.72-22.63,0c-12.19-9.72-22.62,0-22.62,0s-10.41,9.72-22.62,0c-12.21-9.72-22.62,0-22.62,0s-10.41,9.72-22.62,0
		c-12.21-9.72-22.62,0-22.62,0s-10.42,9.72-22.63,0c-3.83-3.05-7.48-4.18-10.69-4.31V96.53z"/>
</g>
<rect y="79.92" class="st2" width="1897.36" height="866.25"/>
</svg>
