<?xml version="1.0" encoding="utf-8"?>
<!-- Generator: Adobe Illustrator 24.2.3, SVG Export Plug-In . SVG Version: 6.00 Build 0)  -->
<svg version="1.1" id="Layer_1" xmlns="http://www.w3.org/2000/svg" xmlns:xlink="http://www.w3.org/1999/xlink" x="0px" y="0px"
	 viewBox="0 0 317.14 18.08" style="enable-background:new 0 0 317.14 18.08;" xml:space="preserve">
<style type="text/css">
	.st0{fill:#7CCEF4;}
	.st1{fill:#55ADE2;}
	.st2{fill:#3F92D0;}
	.st3{fill:#FFFFFF;stroke:#000000;stroke-miterlimit:10;}
	.st4{fill:none;stroke:#000000;stroke-miterlimit:10;}
	.st5{fill:#FFFFFF;}
	.st6{fill:none;stroke:#3F92D0;stroke-miterlimit:10;}
	.st7{fill:none;stroke:#3F92D0;stroke-width:6;stroke-miterlimit:10;}
	.st8{fill:#FBBD2C;}
	.st9{fill:#E62B28;}
	.st10{fill:#A5C841;}
	.st11{fill:#F3944B;}
	.st12{clip-path:url(#SVGID_2_);fill:#FFFFFF;}
</style>
<path class="st5" d="M309.17,7.27c-0.62,0.83-2.75,3.01-5.11,3.09c-1.75,0.06-3.6-1.04-5.49-3.26c-3.15-3.71-6.61-5.52-10.32-5.37
	c-5.64,0.22-9.26,4.95-9.69,5.54h0c-0.62,0.83-2.75,3.01-5.11,3.09c-1.75,0.06-3.6-1.04-5.49-3.26c-3.15-3.71-6.62-5.52-10.32-5.37
	c-5.64,0.22-9.26,4.95-9.69,5.54h0c-0.62,0.83-2.75,3.01-5.11,3.09c-1.75,0.06-3.6-1.04-5.49-3.26c-3.15-3.71-6.63-5.52-10.32-5.37
	c-5.68,0.22-9.31,5.01-9.7,5.55c-0.02,0.03-2.27,2.97-5.07,3.08c-1.78,0.06-3.62-1.03-5.51-3.26c-3.15-3.71-6.61-5.52-10.32-5.37
	c-5.64,0.22-9.26,4.94-9.69,5.54l0,0c-0.62,0.83-2.75,3.01-5.11,3.09c-1.75,0.06-3.6-1.04-5.49-3.26
	c-3.15-3.71-6.62-5.52-10.32-5.37c-5.64,0.22-9.26,4.95-9.69,5.54h0c-0.62,0.83-2.75,3.01-5.11,3.09c-1.75,0.06-3.6-1.04-5.49-3.26
	c-3.15-3.71-6.62-5.52-10.32-5.37c-5.64,0.22-9.26,4.95-9.69,5.54h0c-0.62,0.83-2.75,3.01-5.11,3.09c-1.74,0.06-3.6-1.04-5.49-3.26
	c-3.15-3.71-6.6-5.52-10.32-5.37c-5.68,0.22-9.31,5.01-9.7,5.55c-0.02,0.03-2.27,2.97-5.07,3.08c-1.76,0.06-3.62-1.03-5.51-3.26
	c-3.15-3.71-6.61-5.52-10.32-5.37c-5.64,0.22-9.26,4.94-9.69,5.54l0,0c-0.62,0.83-2.75,3.01-5.11,3.09
	c-1.74,0.06-3.6-1.04-5.49-3.26c-3.15-3.71-6.62-5.52-10.32-5.37c-5.64,0.22-9.26,4.95-9.69,5.54h0c-0.62,0.83-2.75,3.01-5.11,3.09
	c-1.74,0.06-3.6-1.04-5.49-3.26c-3.15-3.71-6.63-5.52-10.32-5.37c-5.68,0.22-9.31,5.01-9.7,5.55l4.85,3.54
	c0.62-0.83,2.75-3.02,5.11-3.09c1.74-0.06,3.6,1.04,5.49,3.26c3.03,3.57,6.37,5.38,9.91,5.38c0.13,0,0.27,0,0.41-0.01
	c5.64-0.22,9.26-4.95,9.69-5.54l0,0c0.62-0.83,2.75-3.02,5.11-3.09c1.78-0.06,3.6,1.04,5.49,3.26c3.03,3.57,6.37,5.38,9.91,5.38
	c0.13,0,0.27,0,0.41-0.01c5.64-0.22,9.26-4.95,9.69-5.54l0,0c0.62-0.83,2.75-3.01,5.11-3.09c1.77-0.05,3.6,1.04,5.49,3.26
	c3.03,3.57,6.37,5.38,9.91,5.38c0.13,0,0.27,0,0.41-0.01c5.64-0.22,9.26-4.95,9.69-5.54l0,0c0.62-0.83,2.75-3.02,5.11-3.09
	c1.78-0.06,3.6,1.04,5.49,3.26c3.03,3.57,6.37,5.38,9.91,5.38c0.13,0,0.27,0,0.41-0.01c5.64-0.22,9.26-4.95,9.69-5.54l0,0
	c0.62-0.83,2.75-3.02,5.11-3.09c1.77-0.06,3.6,1.04,5.49,3.26c3.03,3.57,6.37,5.38,9.91,5.38c0.13,0,0.27,0,0.41-0.01
	c5.64-0.22,9.26-4.95,9.69-5.54l0,0c0.62-0.83,2.75-3.02,5.11-3.09c1.77-0.06,3.6,1.04,5.49,3.26c3.03,3.57,6.37,5.38,9.91,5.38
	c0.13,0,0.27,0,0.41-0.01c5.64-0.22,9.26-4.95,9.69-5.54l0,0c0.62-0.83,2.75-3.01,5.11-3.09c1.77-0.05,3.6,1.04,5.49,3.26
	c3.03,3.57,6.37,5.38,9.91,5.38c0.13,0,0.27,0,0.41-0.01c5.64-0.22,9.26-4.95,9.69-5.54l0,0c0.62-0.83,2.75-3.02,5.11-3.09
	c1.77-0.06,3.6,1.04,5.49,3.26c3.03,3.57,6.37,5.38,9.91,5.38c0.13,0,0.27,0,0.41-0.01c5.64-0.22,9.26-4.95,9.69-5.54l0,0
	c0.62-0.83,2.75-3.02,5.11-3.09c1.77-0.06,3.6,1.04,5.49,3.26c3.03,3.57,6.37,5.38,9.91,5.38c0.13,0,0.27,0,0.41-0.01
	c5.64-0.22,9.26-4.95,9.69-5.54l0,0c0.62-0.83,2.75-3.02,5.11-3.09c1.77-0.06,3.6,1.04,5.49,3.26c3.03,3.57,6.37,5.38,9.91,5.38
	c0.13,0,0.27,0,0.41-0.01c5.68-0.22,9.31-5.01,9.7-5.55L309.17,7.27z"/>
</svg>
