<?xml version="1.0" encoding="utf-8"?>
<!-- Generator: Adobe Illustrator 23.0.2, SVG Export Plug-In . SVG Version: 6.00 Build 0)  -->
<svg version="1.1" id="Layer_1" xmlns="http://www.w3.org/2000/svg" xmlns:xlink="http://www.w3.org/1999/xlink" x="0px" y="0px"
	 viewBox="0 0 504.2 213.6" style="enable-background:new 0 0 504.2 213.6;" xml:space="preserve">
	 <style>
	 	* {
		 fill: #fff;
		}
	 </style>
<path d="M162.1,80.6c0,0-12.9-0.1-14.1-6.7s2.5-12.4,2.5-12.4c-7.2-1.6-12.9,6.1-12.9,6.1C113.8,82.2,105,79.4,105,79.4
	C115.3,60,135,57,142.9,56.5c1.7-0.1,4-1.3,4.9-2.8c3.8-5.8,0.9-8.6-2.6-9.8c-3.3-1.2-6.9-1-10.1,0.2C93.6,59.9,97.6,83.4,97.6,83.4
	S78.2,93,74.9,78.5c-3.3-14.5,0.9-31.1,0.9-31.1C90.8,30.8,93,16.2,93,16.2s3-15.4-8-10.1c-11,5.3-13.6,29.2-14.3,34.5
	c-0.6,5.3-4,6.1-4,6.1c-30-0.2-47,9.9-56,18.6C4.4,71.4,0.2,79.7-0.4,88.5c-0.6,8.9,2.1,19.3,11.9,13.7
	c16.1-9.1,56.2-45.5,56.2-45.5c-1.7,19.1,0.7,28.4,3.4,34c2.3,4.8,7.5,7.6,12.8,7c7.8-0.9,15.6-5.7,15.6-5.7
	c10.6,3,40.2-15.3,40.2-15.3c1.6,9.4,6.9,13.1,11.5,14.5c3.8,1.2,7.9,0.7,11.6-0.8c16.8-7.1,21.4-24.8,21.4-24.8
	C173.3,82.8,162.1,80.6,162.1,80.6z M85.7,17.6c5.7,0.1-7.4,14.6-7.4,14.6S80,17.5,85.7,17.6z M5.8,87.7c0.4-1.6,1.2-3.1,2.3-4.5
	c4.3-5.6,18.8-22,42.5-24C50.6,59.3,1.3,104.8,5.8,87.7z"/>
<path d="M169.5,58.8c0,0,4.1-30.9,24.8-58.1c0.8-1.1,2.5-0.9,3.1,0.4c1.4,3.1,3,9.2,0.8,18.5c-0.3,1.5-2.1,2.1-3.3,1.2
	c-0.7-0.5-1.4-1.3-1.9-2.5c-0.3-0.7-1.3-0.7-1.6,0C187.3,28.1,170.4,66.7,169.5,58.8z"/>
<path d="M267,92.8c3.5,0.2,6.6,0.5,6.6,0.5l-4.3,11.3c-5.4-0.7-16.4-0.8-16.4-0.8l4.7-11.4c0.3,0,0.6,0,1,0
	C200.1,90,105.7,96.1,0,140.9l9.1,13.6c0,0,154.6-73.5,306.6-44l5.3-11.4C321,99.2,301,94.7,267,92.8z"/>
<path d="M13.6,162.1c0,0,27.7,6.6,53.9-20.4c0.5-0.6,1.1-1.1,1.6-1.7c2.6-2.9,17.1-16.2,55.1-6.7c0,0,22.6,6.2,44-15.2
	c0,0,17.6-16.1,54.4,2.8c0.5,0.3,1,0.5,1.5,0.8c2.5,1.4,15.1,7,37-4.6c5.5-2.9,11.8-3.7,18-3.5c8.3,0.2,19.4,2.1,29.6,9.1l-6.4,12.9
	c0,0-9.3-7.1-23.6-6.9c-6.1,0.1-12.1,1.8-17.5,4.6c-8.4,4.4-28.6,12.7-43.9,1.5c-9.3-6.8-19.2-8-25.6-8.2c-5.6-0.2-11,1.6-15.5,4.8
	c-9.6,7-32.9,21.8-52.8,16.3c-13.7-3.8-22.9-4.3-28.5-4c-4,0.3-7.9,1.6-11.2,3.7c-4.4,2.8-11.7,8.1-18.2,15.8
	c-10.2,12.1-40.9,14.4-40.9,14.4L13.6,162.1z"/>
<g>
	<path d="M269.3,104.5c-5.2-0.6-15.4-0.7-16.3-0.8l-6.5,15.3c7.8,0,19.9-6.4,19.9-6.4l4-10.9L269.3,104.5z"/>
	<path d="M503.6,115.7c-111-1.2-132.9-13.3-119.9-23c6.4-4.8,22.3-14.4,24.4-15.7c3.4-2.1,8.2-6.5,3.7-13.6
		c-6.6-10.4-28.5-16.6-28.5-16.6l1.1-1.6c3.3-4.8,5.4-10.5,5.6-16.4c0.3-6.6-2-9.1-4.1-10c-1.6-0.7-3.5-0.4-5,0.4
		c-21.3,11.8-17.3,33.9-17.3,33.9l-18.9,8c0,0-0.7-7.8-6.2-10.4c-5.4-2.5-13.4,5.2-13.4,5.2c-32.4,2.6-38.9,2.8-38.9,2.8
		c7.7-26.5,15.6-38.3,18-42c0.7-1,1.5-2.4,2.3-3.3c1.2-1.4,2.6-3.3,5-2.6c3.5,1.1,4,6.8,5.7,15c1.7,8.1,8.4,7.6,8.4,7.6
		s2.4-18.9-2.5-26.8c-5.1-8.3-15.5-4.4-15.5-4.4c-13.8,4.1-38,61.3-38,61.3l-29.2,9.6c0,0-8.1,3.6-14.1-0.2c-1.9-1.2-3.2-2.6-4-3.9
		c-1.9-3.1-1.5-7.1,0.5-10.1l2-3c0,0,1.8-2.6-0.1-4.9s-4.9-0.6-4.9-0.6s-14.7,16.8-20,12.8s2.1-19.7,2.1-19.7s1.4-7.1-2.3-6.8
		c-3.7,0.2-5.1,5.2-5.1,5.2l-4.2,21.3c0,0-2.1,12.9,5.5,13.7c5.7,0.6,12.6-3.5,15.6-5.6c0.7-0.5,1.6,0,1.8,0.8
		c2.6,20.1,23.3,14,23.3,14l28.1-9.3l-6.7,15.7c3.5-0.1,14.3,0.7,15.6,0.8l8-22.1l34.3-3.3c-1.9,3.9-1.6,8.7-1.6,8.7
		s-0.1,8.5,9.2,8.7s17.2-12,17.2-12c11.4-2.3,30.8-15.9,30.8-15.9s18.7,7.5,25.8,9.5c2,0.6,3.3,1.2,4.1,1.8c1.3,1,1,2.9-0.4,3.7
		c-6.1,3-29.8,15.1-29.4,28.5c0.5,18.7,36.2,18.8,36.2,18.8s76.4-0.7,88.1-0.9C507.4,118.4,503.6,115.7,503.6,115.7z M333.6,70.1
		c0,0-3.1,4-7.2,3.5c-2.3-0.3-1-6.2-1-6.2s2.4-10.4,9.9-7.9C340.6,61.3,333.6,70.1,333.6,70.1z M380.5,39.2c-0.4,1.1-1,2.2-1.8,3
		c-0.8,0.8-1.9,1.5-3.1,1.1c-3.5-1.1-2.8-5.8-2.8-5.8s0.6-5.8,5.7-5.1C381.9,33,381.3,37,380.5,39.2z"/>
</g>
<path d="M237.6,141.6l-7.6,24.9h18.8l8.5-29.4C257.3,137,247.1,143,237.6,141.6z"/>
<polygon points="245.9,174.4 242.9,189.6 221.9,189.6 226.8,174.2 "/>
<polygon points="219.4,197.7 239.7,197.7 237.2,213.6 213.9,213.6 "/>
</svg>
