<?xml version="1.0" encoding="utf-8"?>
<!-- Generator: Adobe Illustrator 24.2.3, SVG Export Plug-In . SVG Version: 6.00 Build 0)  -->
<svg version="1.1" id="Layer_1" xmlns="http://www.w3.org/2000/svg" xmlns:xlink="http://www.w3.org/1999/xlink" x="0px" y="0px"
	 viewBox="0 0 1897.36 96.61" style="enable-background:new 0 0 1897.36 96.61;" xml:space="preserve">
<style type="text/css">
	.st0{fill:#7CCEF4;}
	.st1{fill:#55ADE2;}
	.st2{fill:#3F92D0;}
	.st3{fill:#FFFFFF;stroke:#000000;stroke-miterlimit:10;}
	.st4{fill:none;stroke:#000000;stroke-miterlimit:10;}
	.st5{fill:#FFFFFF;}
	.st6{fill:none;stroke:#3F92D0;stroke-miterlimit:10;}
	.st7{fill:none;stroke:#3F92D0;stroke-width:6;stroke-miterlimit:10;}
	.st8{fill:#E62B28;}
	.st9{fill:#A5C841;}
	.st10{fill:#F3944B;}
	.st11{clip-path:url(#SVGID_2_);fill:#FFFFFF;}
</style>
<g>
	<path class="st0" d="M1897.36,0.04H0v96.52c4.73,0.24,8.03-4.31,8.03-4.31s7.04-9.72,15.3,0c8.26,9.72,15.3,0,15.3,0
		s7.04-9.72,15.3,0c8.26,9.72,15.3,0,15.3,0s7.04-9.72,15.3,0c8.26,9.72,15.31,0,15.31,0s7.04-9.72,15.3,0c8.26,9.72,15.3,0,15.3,0
		s7.04-9.72,15.3,0c8.26,9.72,15.3,0,15.3,0s7.04-9.72,15.3,0c8.26,9.72,15.3,0,15.3,0s7.05-9.72,15.31,0c8.26,9.72,15.3,0,15.3,0
		s7.04-9.72,15.3,0c8.26,9.72,15.3,0,15.3,0s7.04-9.72,15.3,0c8.26,9.72,15.3,0,15.3,0s7.05-9.72,15.31,0c8.26,9.72,15.3,0,15.3,0
		s7.04-9.72,15.3,0c8.26,9.72,15.3,0,15.3,0s7.04-9.72,15.3,0s15.3,0,15.3,0s7.05-9.72,15.31,0c8.25,9.72,15.3,0,15.3,0
		s7.04-9.72,15.3,0c8.26,9.72,15.3,0,15.3,0s7.04-9.72,15.3,0s15.3,0,15.3,0s7.05-9.72,15.31,0c8.25,9.72,15.3,0,15.3,0
		s7.04-9.72,15.3,0s15.3,0,15.3,0s7.04-9.72,15.3,0c8.26,9.72,15.3,0,15.3,0s7.05-9.72,15.31,0c8.25,9.72,15.3,0,15.3,0
		s7.04-9.72,15.3,0s15.3,0,15.3,0s7.04-9.72,15.3,0c8.26,9.72,15.3,0,15.3,0s7.05-9.72,15.31,0c8.25,9.72,15.3,0,15.3,0
		s7.04-9.72,15.3,0c8.26,9.72,15.3,0,15.3,0s7.04-9.72,15.3,0c8.26,9.72,15.3,0,15.3,0s7.05-9.72,15.31,0c8.25,9.72,15.3,0,15.3,0
		s7.04-9.72,15.3,0c8.26,9.72,15.3,0,15.3,0s7.04-9.72,15.3,0c8.26,9.72,15.3,0,15.3,0s7.05-9.72,15.3,0c8.26,9.72,15.31,0,15.31,0
		s7.04-9.72,15.3,0c8.26,9.72,15.3,0,15.3,0s7.04-9.72,15.3,0c8.26,9.72,15.3,0,15.3,0s7.05-9.72,15.3,0c8.26,9.72,15.31,0,15.31,0
		s7.04-9.72,15.3,0c8.26,9.72,15.3,0,15.3,0s7.04-9.72,15.3,0c8.26,9.72,15.3,0,15.3,0s7.05-9.72,15.3,0c8.26,9.72,15.31,0,15.31,0
		s7.04-9.72,15.3,0c8.26,9.72,15.3,0,15.3,0s7.04-9.72,15.3,0c8.26,9.72,15.3,0,15.3,0s7.05-9.72,15.3,0c8.26,9.72,15.31,0,15.31,0
		s7.04-9.72,15.3,0c8.26,9.72,15.3,0,15.3,0s7.04-9.72,15.3,0c8.26,9.72,15.3,0,15.3,0s7.05-9.72,15.3,0c8.26,9.72,15.31,0,15.31,0
		s7.04-9.72,15.3,0c8.26,9.72,15.3,0,15.3,0s7.04-9.72,15.3,0c8.26,9.72,15.3,0,15.3,0s7.04-9.72,15.3,0c8.26,9.72,15.31,0,15.31,0
		s7.04-9.72,15.3,0c8.26,9.72,15.3,0,15.3,0s7.04-9.72,15.3,0c8.26,9.72,15.3,0,15.3,0s7.04-9.72,15.3,0c8.26,9.72,15.31,0,15.31,0
		s7.04-9.72,15.3,0c8.26,9.72,15.3,0,15.3,0s7.04-9.72,15.3,0c8.26,9.72,15.3,0,15.3,0s7.04-9.72,15.3,0c8.26,9.72,15.3,0,15.3,0
		s7.05-9.72,15.31,0c8.26,9.72,15.3,0,15.3,0s7.04-9.72,15.3,0c8.26,9.72,15.3,0,15.3,0s7.04-9.72,15.3,0c8.26,9.72,15.3,0,15.3,0
		s7.05-9.72,15.31,0c8.26,9.72,15.3,0,15.3,0s7.04-9.72,15.3,0c8.26,9.72,15.3,0,15.3,0s7.04-9.72,15.3,0c8.26,9.72,15.3,0,15.3,0
		s7.05-9.72,15.31,0c8.26,9.72,15.3,0,15.3,0s7.04-9.72,15.3,0c8.26,9.72,15.3,0,15.3,0s7.04-9.72,15.3,0c8.26,9.72,15.3,0,15.3,0
		s7.05-9.72,15.31,0c8.25,9.72,15.3,0,15.3,0s7.04-9.72,15.3,0c8.26,9.72,15.3,0,15.3,0s7.04-9.72,15.3,0c8.26,9.72,15.3,0,15.3,0
		s7.05-9.72,15.31,0c2.59,3.05,5.06,4.18,7.23,4.31V0.04z"/>
	<path class="st1" d="M0,0.04V76.3c2.26,0.01,4.87,1.09,7.62,4.32c8.26,9.72,15.3,0,15.3,0s7.04-9.72,15.3,0
		c8.26,9.72,15.3,0,15.3,0s7.04-9.72,15.3,0c8.26,9.72,15.31,0,15.31,0s7.04-9.72,15.3,0c8.26,9.72,15.3,0,15.3,0s7.04-9.72,15.3,0
		c8.26,9.72,15.3,0,15.3,0s7.04-9.72,15.3,0s15.3,0,15.3,0s7.05-9.72,15.31,0c8.26,9.72,15.3,0,15.3,0s7.04-9.72,15.3,0
		s15.3,0,15.3,0s7.04-9.72,15.3,0c8.26,9.72,15.3,0,15.3,0s7.05-9.72,15.31,0c8.26,9.72,15.3,0,15.3,0s7.04-9.72,15.3,0
		c8.26,9.72,15.3,0,15.3,0s7.04-9.72,15.3,0c8.26,9.72,15.3,0,15.3,0s7.05-9.72,15.31,0c8.25,9.72,15.3,0,15.3,0s7.04-9.72,15.3,0
		c8.26,9.72,15.3,0,15.3,0s7.04-9.72,15.3,0c8.26,9.72,15.3,0,15.3,0s7.05-9.72,15.31,0c8.25,9.72,15.3,0,15.3,0s7.04-9.72,15.3,0
		c8.26,9.72,15.3,0,15.3,0s7.04-9.72,15.3,0c8.26,9.72,15.3,0,15.3,0s7.05-9.72,15.31,0c8.25,9.72,15.3,0,15.3,0s7.04-9.72,15.3,0
		c8.26,9.72,15.3,0,15.3,0s7.04-9.72,15.3,0c8.26,9.72,15.3,0,15.3,0s7.05-9.72,15.31,0c8.25,9.72,15.3,0,15.3,0s7.04-9.72,15.3,0
		c8.26,9.72,15.3,0,15.3,0s7.04-9.72,15.3,0c8.26,9.72,15.3,0,15.3,0s7.05-9.72,15.31,0c8.25,9.72,15.3,0,15.3,0s7.04-9.72,15.3,0
		c8.26,9.72,15.3,0,15.3,0s7.04-9.72,15.3,0c8.26,9.72,15.3,0,15.3,0s7.05-9.72,15.3,0c8.26,9.72,15.31,0,15.31,0s7.04-9.72,15.3,0
		c8.26,9.72,15.3,0,15.3,0s7.04-9.72,15.3,0s15.3,0,15.3,0s7.05-9.72,15.3,0c8.26,9.72,15.31,0,15.31,0s7.04-9.72,15.3,0
		c8.26,9.72,15.3,0,15.3,0s7.04-9.72,15.3,0c8.26,9.72,15.3,0,15.3,0s7.05-9.72,15.3,0c8.26,9.72,15.31,0,15.31,0s7.04-9.72,15.3,0
		s15.3,0,15.3,0s7.04-9.72,15.3,0c8.26,9.72,15.3,0,15.3,0s7.05-9.72,15.3,0c8.26,9.72,15.31,0,15.31,0s7.04-9.72,15.3,0
		c8.26,9.72,15.3,0,15.3,0s7.04-9.72,15.3,0c8.26,9.72,15.3,0,15.3,0s7.05-9.72,15.3,0c8.26,9.72,15.31,0,15.31,0s7.04-9.72,15.3,0
		c8.26,9.72,15.3,0,15.3,0s7.04-9.72,15.3,0c8.26,9.72,15.3,0,15.3,0s7.04-9.72,15.3,0c8.26,9.72,15.31,0,15.31,0s7.04-9.72,15.3,0
		c8.26,9.72,15.3,0,15.3,0s7.04-9.72,15.3,0c8.26,9.72,15.3,0,15.3,0s7.04-9.72,15.3,0c8.26,9.72,15.31,0,15.31,0s7.04-9.72,15.3,0
		c8.26,9.72,15.3,0,15.3,0s7.04-9.72,15.3,0c8.26,9.72,15.3,0,15.3,0s7.04-9.72,15.3,0c8.26,9.72,15.3,0,15.3,0s7.05-9.72,15.31,0
		c8.26,9.72,15.3,0,15.3,0s7.04-9.72,15.3,0c8.26,9.72,15.3,0,15.3,0s7.04-9.72,15.3,0s15.3,0,15.3,0s7.05-9.72,15.31,0
		c8.26,9.72,15.3,0,15.3,0s7.04-9.72,15.3,0s15.3,0,15.3,0s7.04-9.72,15.3,0c8.26,9.72,15.3,0,15.3,0s7.05-9.72,15.31,0
		c8.26,9.72,15.3,0,15.3,0s7.04-9.72,15.3,0c8.26,9.72,15.3,0,15.3,0s7.04-9.72,15.3,0c8.26,9.72,15.3,0,15.3,0s7.05-9.72,15.31,0
		c8.25,9.72,15.3,0,15.3,0s7.04-9.72,15.3,0c8.26,9.72,15.3,0,15.3,0s7.04-9.72,15.3,0c8.26,9.72,15.3,0,15.3,0s7.05-9.72,15.31,0
		c8.25,9.72,15.3,0,15.3,0s3.12-4.3,7.65-4.31V0.04H0z"/>
	<path class="st2" d="M1897.36,0.04H0v73.4c4.73,0.24,8.03-4.31,8.03-4.31s7.04-9.72,15.3,0c8.26,9.72,15.3,0,15.3,0
		s7.04-9.72,15.3,0c8.26,9.72,15.3,0,15.3,0s7.04-9.72,15.3,0c8.26,9.72,15.31,0,15.31,0s7.04-9.72,15.3,0c8.26,9.72,15.3,0,15.3,0
		s7.04-9.72,15.3,0c8.26,9.72,15.3,0,15.3,0s7.04-9.72,15.3,0c8.26,9.72,15.3,0,15.3,0s7.05-9.72,15.31,0c8.26,9.72,15.3,0,15.3,0
		s7.04-9.72,15.3,0c8.26,9.72,15.3,0,15.3,0s7.04-9.72,15.3,0c8.26,9.72,15.3,0,15.3,0s7.05-9.72,15.31,0c8.26,9.72,15.3,0,15.3,0
		s7.04-9.72,15.3,0c8.26,9.72,15.3,0,15.3,0s7.04-9.72,15.3,0s15.3,0,15.3,0s7.05-9.72,15.31,0c8.25,9.72,15.3,0,15.3,0
		s7.04-9.72,15.3,0c8.26,9.72,15.3,0,15.3,0s7.04-9.72,15.3,0s15.3,0,15.3,0s7.05-9.72,15.31,0c8.25,9.72,15.3,0,15.3,0
		s7.04-9.72,15.3,0s15.3,0,15.3,0s7.04-9.72,15.3,0c8.26,9.72,15.3,0,15.3,0s7.05-9.72,15.31,0c8.25,9.72,15.3,0,15.3,0
		s7.04-9.72,15.3,0s15.3,0,15.3,0s7.04-9.72,15.3,0c8.26,9.72,15.3,0,15.3,0s7.05-9.72,15.31,0c8.25,9.72,15.3,0,15.3,0
		s7.04-9.72,15.3,0c8.26,9.72,15.3,0,15.3,0s7.04-9.72,15.3,0c8.26,9.72,15.3,0,15.3,0s7.05-9.72,15.31,0c8.25,9.72,15.3,0,15.3,0
		s7.04-9.72,15.3,0c8.26,9.72,15.3,0,15.3,0s7.04-9.72,15.3,0c8.26,9.72,15.3,0,15.3,0s7.05-9.72,15.3,0c8.26,9.72,15.31,0,15.31,0
		s7.04-9.72,15.3,0c8.26,9.72,15.3,0,15.3,0s7.04-9.72,15.3,0c8.26,9.72,15.3,0,15.3,0s7.05-9.72,15.3,0c8.26,9.72,15.31,0,15.31,0
		s7.04-9.72,15.3,0c8.26,9.72,15.3,0,15.3,0s7.04-9.72,15.3,0c8.26,9.72,15.3,0,15.3,0s7.05-9.72,15.3,0c8.26,9.72,15.31,0,15.31,0
		s7.04-9.72,15.3,0c8.26,9.72,15.3,0,15.3,0s7.04-9.72,15.3,0c8.26,9.72,15.3,0,15.3,0s7.05-9.72,15.3,0c8.26,9.72,15.31,0,15.31,0
		s7.04-9.72,15.3,0c8.26,9.72,15.3,0,15.3,0s7.04-9.72,15.3,0c8.26,9.72,15.3,0,15.3,0s7.05-9.72,15.3,0c8.26,9.72,15.31,0,15.31,0
		s7.04-9.72,15.3,0c8.26,9.72,15.3,0,15.3,0s7.04-9.72,15.3,0c8.26,9.72,15.3,0,15.3,0s7.04-9.72,15.3,0c8.26,9.72,15.31,0,15.31,0
		s7.04-9.72,15.3,0c8.26,9.72,15.3,0,15.3,0s7.04-9.72,15.3,0c8.26,9.72,15.3,0,15.3,0s7.04-9.72,15.3,0c8.26,9.72,15.31,0,15.31,0
		s7.04-9.72,15.3,0c8.26,9.72,15.3,0,15.3,0s7.04-9.72,15.3,0c8.26,9.72,15.3,0,15.3,0s7.04-9.72,15.3,0c8.26,9.72,15.3,0,15.3,0
		s7.05-9.72,15.31,0c8.26,9.72,15.3,0,15.3,0s7.04-9.72,15.3,0c8.26,9.72,15.3,0,15.3,0s7.04-9.72,15.3,0c8.26,9.72,15.3,0,15.3,0
		s7.05-9.72,15.31,0c8.26,9.72,15.3,0,15.3,0s7.04-9.72,15.3,0c8.26,9.72,15.3,0,15.3,0s7.04-9.72,15.3,0c8.26,9.72,15.3,0,15.3,0
		s7.05-9.72,15.31,0c8.26,9.72,15.3,0,15.3,0s7.04-9.72,15.3,0c8.26,9.72,15.3,0,15.3,0s7.04-9.72,15.3,0c8.26,9.72,15.3,0,15.3,0
		s7.05-9.72,15.31,0c8.25,9.72,15.3,0,15.3,0s7.04-9.72,15.3,0c8.26,9.72,15.3,0,15.3,0s7.04-9.72,15.3,0c8.26,9.72,15.3,0,15.3,0
		s7.05-9.72,15.31,0c2.59,3.05,5.06,4.18,7.23,4.31V0.04z"/>
</g>
</svg>
