<?xml version="1.0" encoding="utf-8"?>
<!-- Generator: Adobe Illustrator 24.2.3, SVG Export Plug-In . SVG Version: 6.00 Build 0)  -->
<svg version="1.1" id="Layer_1" xmlns="http://www.w3.org/2000/svg" xmlns:xlink="http://www.w3.org/1999/xlink" x="0px" y="0px"
	 viewBox="0 0 1897.36 96.61" style="enable-background:new 0 0 1897.36 96.61;" xml:space="preserve">
<style type="text/css">
	.st0{fill:#7CCEF4;}
	.st1{fill:#55ADE2;}
	.st2{fill:#3F92D0;}
	.st3{fill:#FFFFFF;stroke:#000000;stroke-miterlimit:10;}
	.st4{fill:none;stroke:#000000;stroke-miterlimit:10;}
	.st5{fill:#FFFFFF;}
	.st6{fill:none;stroke:#3F92D0;stroke-miterlimit:10;}
	.st7{fill:none;stroke:#3F92D0;stroke-width:6;stroke-miterlimit:10;}
	.st8{fill:#FBBD2C;}
	.st9{fill:#E62B28;}
	.st10{fill:#A5C841;}
	.st11{fill:#F3944B;}
	.st12{clip-path:url(#SVGID_2_);fill:#FFFFFF;}
	.st13{fill:#020202;}
	.st14{fill:#636363;}
	.st15{stroke:#000000;stroke-width:1.5;stroke-linecap:round;stroke-miterlimit:10;}
	.st16{fill:none;stroke:#000000;stroke-width:3;stroke-miterlimit:10;}
	.st17{stroke:#000000;stroke-width:3;stroke-linecap:round;stroke-miterlimit:10;}
	.st18{fill:none;stroke:#000000;stroke-width:3;stroke-linecap:round;stroke-linejoin:round;stroke-miterlimit:10;}
	.st19{fill:none;stroke:#020202;stroke-width:3;stroke-linecap:round;stroke-linejoin:round;stroke-miterlimit:10;}
	.st20{fill:#3E91CF;}
	.st21{fill:none;stroke:#3F92D0;stroke-width:2;stroke-miterlimit:10;}
</style>
<g>
	<path class="st0" d="M2349.98,0.04H-454.61v96.52c6.99,0.24,11.87-4.31,11.87-4.31s10.41-9.72,22.62,0c12.21,9.72,22.62,0,22.62,0
		s10.41-9.72,22.62,0c12.21,9.72,22.62,0,22.62,0s10.41-9.72,22.62,0c12.21,9.72,22.63,0,22.63,0s10.41-9.72,22.62,0
		c12.21,9.72,22.62,0,22.62,0s10.41-9.72,22.62,0c12.21,9.72,22.62,0,22.62,0s10.41-9.72,22.62,0c12.21,9.72,22.62,0,22.62,0
		s10.42-9.72,22.63,0c12.21,9.72,22.62,0,22.62,0s10.41-9.72,22.62,0c12.21,9.72,22.62,0,22.62,0s10.41-9.72,22.62,0
		c12.21,9.72,22.62,0,22.62,0s10.42-9.72,22.63,0c12.21,9.72,22.62,0,22.62,0s10.41-9.72,22.62,0c12.21,9.72,22.62,0,22.62,0
		s10.41-9.72,22.62,0s22.62,0,22.62,0s10.42-9.72,22.63,0c12.19,9.72,22.62,0,22.62,0s10.41-9.72,22.62,0
		c12.21,9.72,22.62,0,22.62,0s10.41-9.72,22.62,0c12.21,9.72,22.62,0,22.62,0s10.42-9.72,22.63,0c12.19,9.72,22.62,0,22.62,0
		s10.41-9.72,22.62,0s22.62,0,22.62,0s10.41-9.72,22.62,0c12.21,9.72,22.62,0,22.62,0s10.42-9.72,22.63,0
		c12.19,9.72,22.62,0,22.62,0s10.41-9.72,22.62,0s22.62,0,22.62,0s10.41-9.72,22.62,0c12.21,9.72,22.62,0,22.62,0
		s10.42-9.72,22.63,0c12.19,9.72,22.62,0,22.62,0s10.41-9.72,22.62,0c12.21,9.72,22.62,0,22.62,0s10.41-9.72,22.62,0
		c12.21,9.72,22.62,0,22.62,0s10.42-9.72,22.63,0c12.19,9.72,22.62,0,22.62,0s10.41-9.72,22.62,0c12.21,9.72,22.62,0,22.62,0
		s10.41-9.72,22.62,0c12.21,9.72,22.62,0,22.62,0s10.42-9.72,22.62,0c12.21,9.72,22.63,0,22.63,0s10.41-9.72,22.62,0
		c12.21,9.72,22.62,0,22.62,0s10.41-9.72,22.62,0c12.21,9.72,22.62,0,22.62,0s10.42-9.72,22.62,0c12.21,9.72,22.63,0,22.63,0
		s10.41-9.72,22.62,0c12.21,9.72,22.62,0,22.62,0s10.41-9.72,22.62,0c12.21,9.72,22.62,0,22.62,0s10.42-9.72,22.62,0
		c12.21,9.72,22.63,0,22.63,0s10.41-9.72,22.62,0c12.21,9.72,22.62,0,22.62,0s10.41-9.72,22.62,0c12.21,9.72,22.62,0,22.62,0
		s10.42-9.72,22.62,0c12.21,9.72,22.63,0,22.63,0s10.41-9.72,22.62,0c12.21,9.72,22.62,0,22.62,0s10.41-9.72,22.62,0
		c12.21,9.72,22.62,0,22.62,0s10.42-9.72,22.62,0c12.21,9.72,22.63,0,22.63,0s10.41-9.72,22.62,0c12.21,9.72,22.62,0,22.62,0
		s10.41-9.72,22.62,0c12.21,9.72,22.62,0,22.62,0s10.41-9.72,22.62,0c12.21,9.72,22.63,0,22.63,0s10.41-9.72,22.62,0
		c12.21,9.72,22.62,0,22.62,0s10.41-9.72,22.62,0c12.21,9.72,22.62,0,22.62,0s10.41-9.72,22.62,0c12.21,9.72,22.63,0,22.63,0
		s10.41-9.72,22.62,0c12.21,9.72,22.62,0,22.62,0s10.41-9.72,22.62,0c12.21,9.72,22.62,0,22.62,0s10.41-9.72,22.62,0
		c12.21,9.72,22.62,0,22.62,0s10.42-9.72,22.63,0c12.21,9.72,22.62,0,22.62,0s10.41-9.72,22.62,0c12.21,9.72,22.62,0,22.62,0
		s10.41-9.72,22.62,0c12.21,9.72,22.62,0,22.62,0s10.42-9.72,22.63,0c12.21,9.72,22.62,0,22.62,0s10.41-9.72,22.62,0
		c12.21,9.72,22.62,0,22.62,0s10.41-9.72,22.62,0c12.21,9.72,22.62,0,22.62,0s10.42-9.72,22.63,0c12.21,9.72,22.62,0,22.62,0
		s10.41-9.72,22.62,0c12.21,9.72,22.62,0,22.62,0s10.41-9.72,22.62,0c12.21,9.72,22.62,0,22.62,0s10.42-9.72,22.63,0
		c12.19,9.72,22.62,0,22.62,0s10.41-9.72,22.62,0c12.21,9.72,22.62,0,22.62,0s10.41-9.72,22.62,0c12.21,9.72,22.62,0,22.62,0
		s10.42-9.72,22.63,0c3.83,3.05,7.48,4.18,10.69,4.31V0.04z"/>
	<path class="st1" d="M-454.61,0.04V76.3c3.34,0.01,7.2,1.09,11.26,4.32c12.21,9.72,22.62,0,22.62,0s10.41-9.72,22.62,0
		c12.21,9.72,22.62,0,22.62,0s10.41-9.72,22.62,0c12.21,9.72,22.63,0,22.63,0s10.41-9.72,22.62,0c12.21,9.72,22.62,0,22.62,0
		s10.41-9.72,22.62,0c12.21,9.72,22.62,0,22.62,0s10.41-9.72,22.62,0s22.62,0,22.62,0s10.42-9.72,22.63,0
		c12.21,9.72,22.62,0,22.62,0s10.41-9.72,22.62,0s22.62,0,22.62,0s10.41-9.72,22.62,0c12.21,9.72,22.62,0,22.62,0
		s10.42-9.72,22.63,0c12.21,9.72,22.62,0,22.62,0s10.41-9.72,22.62,0c12.21,9.72,22.62,0,22.62,0s10.41-9.72,22.62,0
		c12.21,9.72,22.62,0,22.62,0s10.42-9.72,22.63,0c12.19,9.72,22.62,0,22.62,0s10.41-9.72,22.62,0c12.21,9.72,22.62,0,22.62,0
		s10.41-9.72,22.62,0c12.21,9.72,22.62,0,22.62,0s10.42-9.72,22.63,0c12.19,9.72,22.62,0,22.62,0s10.41-9.72,22.62,0
		c12.21,9.72,22.62,0,22.62,0s10.41-9.72,22.62,0c12.21,9.72,22.62,0,22.62,0s10.42-9.72,22.63,0c12.19,9.72,22.62,0,22.62,0
		s10.41-9.72,22.62,0c12.21,9.72,22.62,0,22.62,0s10.41-9.72,22.62,0c12.21,9.72,22.62,0,22.62,0s10.42-9.72,22.63,0
		c12.19,9.72,22.62,0,22.62,0s10.41-9.72,22.62,0c12.21,9.72,22.62,0,22.62,0s10.41-9.72,22.62,0c12.21,9.72,22.62,0,22.62,0
		s10.42-9.72,22.63,0c12.19,9.72,22.62,0,22.62,0s10.41-9.72,22.62,0c12.21,9.72,22.62,0,22.62,0s10.41-9.72,22.62,0
		c12.21,9.72,22.62,0,22.62,0s10.42-9.72,22.62,0c12.21,9.72,22.63,0,22.63,0s10.41-9.72,22.62,0c12.21,9.72,22.62,0,22.62,0
		s10.41-9.72,22.62,0s22.62,0,22.62,0s10.42-9.72,22.62,0c12.21,9.72,22.63,0,22.63,0s10.41-9.72,22.62,0
		c12.21,9.72,22.62,0,22.62,0s10.41-9.72,22.62,0c12.21,9.72,22.62,0,22.62,0s10.42-9.72,22.62,0c12.21,9.72,22.63,0,22.63,0
		s10.41-9.72,22.62,0c12.21,9.72,22.62,0,22.62,0s10.41-9.72,22.62,0c12.21,9.72,22.62,0,22.62,0s10.42-9.72,22.62,0
		c12.21,9.72,22.63,0,22.63,0s10.41-9.72,22.62,0c12.21,9.72,22.62,0,22.62,0s10.41-9.72,22.62,0c12.21,9.72,22.62,0,22.62,0
		s10.42-9.72,22.62,0c12.21,9.72,22.63,0,22.63,0s10.41-9.72,22.62,0c12.21,9.72,22.62,0,22.62,0s10.41-9.72,22.62,0
		c12.21,9.72,22.62,0,22.62,0s10.41-9.72,22.62,0c12.21,9.72,22.63,0,22.63,0s10.41-9.72,22.62,0c12.21,9.72,22.62,0,22.62,0
		s10.41-9.72,22.62,0c12.21,9.72,22.62,0,22.62,0s10.41-9.72,22.62,0c12.21,9.72,22.63,0,22.63,0s10.41-9.72,22.62,0
		c12.21,9.72,22.62,0,22.62,0s10.41-9.72,22.62,0c12.21,9.72,22.62,0,22.62,0s10.41-9.72,22.62,0c12.21,9.72,22.62,0,22.62,0
		s10.42-9.72,22.63,0c12.21,9.72,22.62,0,22.62,0s10.41-9.72,22.62,0c12.21,9.72,22.62,0,22.62,0s10.41-9.72,22.62,0
		c12.21,9.72,22.62,0,22.62,0s10.42-9.72,22.63,0c12.21,9.72,22.62,0,22.62,0s10.41-9.72,22.62,0c12.21,9.72,22.62,0,22.62,0
		s10.41-9.72,22.62,0c12.21,9.72,22.62,0,22.62,0s10.42-9.72,22.63,0c12.21,9.72,22.62,0,22.62,0s10.41-9.72,22.62,0
		c12.21,9.72,22.62,0,22.62,0s10.41-9.72,22.62,0c12.21,9.72,22.62,0,22.62,0s10.42-9.72,22.63,0c12.19,9.72,22.62,0,22.62,0
		s10.41-9.72,22.62,0c12.21,9.72,22.62,0,22.62,0s10.41-9.72,22.62,0c12.21,9.72,22.62,0,22.62,0s10.42-9.72,22.63,0
		c12.19,9.72,22.62,0,22.62,0s4.62-4.3,11.31-4.31V0.04H-454.61z"/>
	<path class="st2" d="M2349.98,0.04H-454.61v73.4c6.99,0.24,11.87-4.31,11.87-4.31s10.41-9.72,22.62,0c12.21,9.72,22.62,0,22.62,0
		s10.41-9.72,22.62,0c12.21,9.72,22.62,0,22.62,0s10.41-9.72,22.62,0c12.21,9.72,22.63,0,22.63,0s10.41-9.72,22.62,0
		c12.21,9.72,22.62,0,22.62,0s10.41-9.72,22.62,0c12.21,9.72,22.62,0,22.62,0s10.41-9.72,22.62,0c12.21,9.72,22.62,0,22.62,0
		s10.42-9.72,22.63,0c12.21,9.72,22.62,0,22.62,0s10.41-9.72,22.62,0c12.21,9.72,22.62,0,22.62,0s10.41-9.72,22.62,0
		c12.21,9.72,22.62,0,22.62,0s10.42-9.72,22.63,0c12.21,9.72,22.62,0,22.62,0s10.41-9.72,22.62,0c12.21,9.72,22.62,0,22.62,0
		s10.41-9.72,22.62,0s22.62,0,22.62,0s10.42-9.72,22.63,0c12.19,9.72,22.62,0,22.62,0s10.41-9.72,22.62,0
		c12.21,9.72,22.62,0,22.62,0s10.41-9.72,22.62,0c12.21,9.72,22.62,0,22.62,0s10.42-9.72,22.63,0c12.19,9.72,22.62,0,22.62,0
		s10.41-9.72,22.62,0s22.62,0,22.62,0s10.41-9.72,22.62,0c12.21,9.72,22.62,0,22.62,0s10.42-9.72,22.63,0
		c12.19,9.72,22.62,0,22.62,0s10.41-9.72,22.62,0s22.62,0,22.62,0s10.41-9.72,22.62,0c12.21,9.72,22.62,0,22.62,0
		s10.42-9.72,22.63,0c12.19,9.72,22.62,0,22.62,0s10.41-9.72,22.62,0c12.21,9.72,22.62,0,22.62,0s10.41-9.72,22.62,0
		c12.21,9.72,22.62,0,22.62,0s10.42-9.72,22.63,0c12.19,9.72,22.62,0,22.62,0s10.41-9.72,22.62,0c12.21,9.72,22.62,0,22.62,0
		s10.41-9.72,22.62,0c12.21,9.72,22.62,0,22.62,0s10.42-9.72,22.62,0c12.21,9.72,22.63,0,22.63,0s10.41-9.72,22.62,0
		c12.21,9.72,22.62,0,22.62,0s10.41-9.72,22.62,0c12.21,9.72,22.62,0,22.62,0s10.42-9.72,22.62,0c12.21,9.72,22.63,0,22.63,0
		s10.41-9.72,22.62,0c12.21,9.72,22.62,0,22.62,0s10.41-9.72,22.62,0c12.21,9.72,22.62,0,22.62,0s10.42-9.72,22.62,0
		c12.21,9.72,22.63,0,22.63,0s10.41-9.72,22.62,0c12.21,9.72,22.62,0,22.62,0s10.41-9.72,22.62,0c12.21,9.72,22.62,0,22.62,0
		s10.42-9.72,22.62,0c12.21,9.72,22.63,0,22.63,0s10.41-9.72,22.62,0c12.21,9.72,22.62,0,22.62,0s10.41-9.72,22.62,0
		c12.21,9.72,22.62,0,22.62,0s10.42-9.72,22.62,0c12.21,9.72,22.63,0,22.63,0s10.41-9.72,22.62,0c12.21,9.72,22.62,0,22.62,0
		s10.41-9.72,22.62,0c12.21,9.72,22.62,0,22.62,0s10.41-9.72,22.62,0c12.21,9.72,22.63,0,22.63,0s10.41-9.72,22.62,0
		c12.21,9.72,22.62,0,22.62,0s10.41-9.72,22.62,0c12.21,9.72,22.62,0,22.62,0s10.41-9.72,22.62,0c12.21,9.72,22.63,0,22.63,0
		s10.41-9.72,22.62,0c12.21,9.72,22.62,0,22.62,0s10.41-9.72,22.62,0c12.21,9.72,22.62,0,22.62,0s10.41-9.72,22.62,0
		c12.21,9.72,22.62,0,22.62,0s10.42-9.72,22.63,0c12.21,9.72,22.62,0,22.62,0s10.41-9.72,22.62,0c12.21,9.72,22.62,0,22.62,0
		s10.41-9.72,22.62,0c12.21,9.72,22.62,0,22.62,0s10.42-9.72,22.63,0c12.21,9.72,22.62,0,22.62,0s10.41-9.72,22.62,0
		c12.21,9.72,22.62,0,22.62,0s10.41-9.72,22.62,0c12.21,9.72,22.62,0,22.62,0s10.42-9.72,22.63,0c12.21,9.72,22.62,0,22.62,0
		s10.41-9.72,22.62,0c12.21,9.72,22.62,0,22.62,0s10.41-9.72,22.62,0c12.21,9.72,22.62,0,22.62,0s10.42-9.72,22.63,0
		c12.19,9.72,22.62,0,22.62,0s10.41-9.72,22.62,0c12.21,9.72,22.62,0,22.62,0s10.41-9.72,22.62,0c12.21,9.72,22.62,0,22.62,0
		s10.42-9.72,22.63,0c3.83,3.05,7.48,4.18,10.69,4.31V0.04z"/>
</g>
</svg>
